<svg width="64" height="64" viewBox="0 0 64 64" fill="none" xmlns="http://www.w3.org/2000/svg">
<rect width="64" height="64" fill="#4B00DD"/>
<path d="M46.4935 45.0383L41.0269 50.5647C41.0269 50.5647 35.7837 49.3509 28.3029 41.8029C28.2289 41.728 28.0342 41.5408 27.8251 41.3403C26.8371 44.5757 24.9054 47.6094 24.9054 47.6094L19.8928 44.5757L19.8964 44.5721C20.0278 44.4103 24.2627 39.1822 24.2627 33.9275C25.6055 33.9215 27.0175 33.4517 28.3149 33.122C30.4664 32.5737 32.5498 31.6667 34.4361 30.488C36.1134 29.4397 37.6545 28.0473 38.4393 26.1802C38.5253 25.9724 38.6018 25.7611 38.6687 25.5473C38.8144 25.08 38.8682 24.5703 38.738 24.0969C38.1371 21.9013 35.4062 21.9532 33.76 22.6489C31.9884 23.3976 30.4174 24.708 29.0998 26.1005C27.4775 27.813 26.1216 29.7779 24.9616 31.8346C24.9437 31.8696 24.9222 31.9034 24.9042 31.9384C24.9042 31.9384 24.9018 31.9421 24.8983 31.9505C24.8947 31.9565 24.8899 31.9674 24.8839 31.9771C24.7955 32.1582 24.4407 32.9215 24.2986 33.698C24.2842 33.7753 24.2723 33.8514 24.2615 33.9287H17.4546V13.8182H24.2615V20.6236C28.9253 15.3085 38.8025 11.4729 44.2213 17.486C47.3309 20.9352 47.1995 26.4821 44.5463 30.145C42.0125 33.6401 37.7369 35.5386 33.6931 36.5579C33.6931 36.5579 37.1479 41.1302 46.4923 45.0395L46.4935 45.0383Z" fill="white"/>
</svg>
