<svg width="16" height="12" viewBox="0 0 16 12" fill="none" xmlns="http://www.w3.org/2000/svg">
<path d="M15.5 6C15.5 5.81394 15.4447 5.68459 15.3435 5.57785C15.2429 5.47313 15.1303 5.42377 14.9727 5.42377H3.51846H2.34999L3.15678 4.57853L6.08455 1.51127C6.20164 1.3886 6.25441 1.25629 6.25441 1.08915C6.25441 0.923073 6.20188 0.791026 6.08455 0.668103L6.44623 0.32287L6.08455 0.668102C5.96794 0.545936 5.85221 0.5 5.71377 0.5C5.57639 0.5 5.4609 0.545658 5.34403 0.668103L0.644188 5.59187C0.585639 5.65321 0.554014 5.7086 0.536911 5.75787C0.513548 5.82743 0.5 5.90705 0.5 6C0.5 6.09295 0.513548 6.17257 0.536911 6.24213C0.554014 6.2914 0.585639 6.34679 0.644188 6.40813L5.36971 11.3588C5.4601 11.4535 5.56296 11.5 5.71377 11.5C5.85221 11.5 5.96793 11.4541 6.08455 11.3319C6.19532 11.2158 6.24688 11.0861 6.24228 10.9109C6.23678 10.7263 6.17656 10.5851 6.05886 10.4618L3.15678 7.42147L2.34999 6.57623H3.51846H14.9727C15.1301 6.57623 15.2426 6.52674 15.3435 6.42104L15.6926 6.75424L15.3435 6.42104C15.4445 6.31517 15.5 6.18641 15.5 6Z" fill="#2D0085" stroke="#7A7A7A"/>
</svg>
